<svg width="561" height="386" viewBox="0 0 561 386" fill="none" xmlns="http://www.w3.org/2000/svg">
  <g opacity="0.05">
    <path
      d="M13.1713 239.274C12.0395 238.129 12.0398 236.984 10.908 235.839C12.0398 235.839 13.1713 238.129 13.1713 239.274Z"
      fill="#010101" />
    <path
      d="M253.33 371.098L560.323 191.133L521.807 169.354L252.197 326.393L30.1656 196.865C19.9703 191.133 10.908 195.718 10.908 208.327C10.908 220.936 19.9703 235.838 30.1656 241.569L253.33 371.098Z"
      fill="#0C67BA" />
    <path
      d="M253.33 312.638L560.323 132.674L338.291 4.29199C330.361 -0.293086 322.432 -1.43932 316.768 1.99949L10.908 180.817C22.2361 175.086 17.7044 175.086 253.33 312.638Z"
      fill="#1B76C9" />
    <path
      d="M9.77429 181.965C13.1727 179.673 17.704 179.673 21.1024 180.819C19.9696 179.673 15.4384 178.526 9.77429 181.965Z"
      fill="#1B76C9" />
    <path
      d="M23.37 179.673C24.5018 179.673 25.6338 180.817 26.7656 180.817C25.6338 180.817 24.5018 180.818 23.37 179.673Z"
      fill="#1B76C9" />
    <path d="M560.322 147.578V133.822L253.329 313.787V327.542C570.517 140.7 505.947 178.527 560.322 147.578Z"
      fill="#1B76C9" />
    <path d="M253.329 384.854L560.322 204.89V192.281L253.329 371.099V384.854Z" fill="#1B76C9" />
    <path
      d="M31.2995 196.866L253.331 326.394V312.639C15.4398 173.94 27.9011 179.672 21.1043 179.672C6.37768 176.233 -2.68504 191.134 0.713399 210.621C1.84621 219.791 6.37754 228.961 13.1744 239.277C13.1744 239.277 13.1745 239.278 14.3073 240.424C16.5729 243.863 21.1041 248.448 24.5026 251.887C26.7682 254.179 29.0339 255.325 252.198 386V372.245L30.1666 242.716C22.2369 238.131 15.44 228.961 13.1744 218.645C12.0416 215.206 12.0415 211.767 12.0415 208.328C12.0415 195.719 19.9714 191.134 31.2995 196.866Z"
      fill="#2A85E8" />
    <path d="M270.323 367.66L552.393 202.597L553.526 144.137L270.323 310.346V367.66Z" fill="#C8DAFF" />
    <path
      d="M253.332 326.394C-18.5436 167.063 39.2302 200.305 31.3005 196.866C26.7692 207.182 34.699 230.108 49.4255 238.132L271.457 367.66V317.224L253.332 326.394Z"
      fill="#AABCFF" />
    <path
      d="M560.322 147.578V133.822L253.329 313.787V327.542L270.321 317.225C568.251 141.846 507.08 178.527 560.322 147.578Z"
      fill="#2A85E8" />
    <path d="M253.329 384.854L560.322 204.89V192.281L253.329 371.099V384.854Z" fill="#2A85E8" />
  </g>
</svg>
