<svg width="28" height="28" viewBox="0 0 28 28" fill="none" xmlns="http://www.w3.org/2000/svg">
    <g clip-path="url(#clip0_8_703)">
        <path
            d="M28 6.36649V22.5937C28 23.6483 27.146 24.5023 26.0913 24.5023H21.6358V13.685L14 19.4133L6.36417 13.685V24.5035H1.90867C1.65792 24.5035 1.40963 24.4541 1.17798 24.3581C0.946336 24.2621 0.735875 24.1214 0.558623 23.944C0.381372 23.7667 0.240805 23.5561 0.144954 23.3244C0.0491031 23.0927 -0.000152912 22.8444 3.56593e-07 22.5937V6.36649C3.56593e-07 4.00633 2.69383 2.65883 4.5815 4.07516L6.36417 5.41333L14 11.1393L21.6358 5.41099L23.4185 4.07516C25.305 2.65999 28 4.00633 28 6.36649Z"
            fill="#EA4335" />
    </g>
    <defs>
        <clipPath id="clip0_8_703">
            <rect width="28" height="28" fill="white" />
        </clipPath>
    </defs>
</svg>